<svg id="visual" viewBox="0 0 900 900" width="900" height="900" xmlns="http://www.w3.org/2000/svg" xmlns:xlink="http://www.w3.org/1999/xlink" version="1.1"><rect width="900" height="900" fill="#6b21a8"></rect><g><g transform="translate(495 205)"><path d="M49.4 -22.4C55.6 2.9 46.3 26.9 24.6 45.3C2.9 63.8 -31.1 76.7 -50.2 64C-69.2 51.4 -73.3 13.1 -62.5 -18.7C-51.6 -50.5 -25.8 -75.8 -2.1 -75.1C21.6 -74.4 43.2 -47.7 49.4 -22.4Z" stroke="#581c87" fill="none" stroke-width="20"></path></g><g transform="translate(33 801)"><path d="M32.1 -7.5C38.5 9.2 38.3 30.9 25.6 41.7C12.8 52.5 -12.6 52.4 -28.4 40.5C-44.3 28.7 -50.6 5.1 -44.2 -11.5C-37.9 -28.1 -18.9 -37.8 -3 -36.8C12.9 -35.8 25.7 -24.2 32.1 -7.5Z" stroke="#581c87" fill="none" stroke-width="20"></path></g><g transform="translate(742 801)"><path d="M50.7 -17.8C57.9 5.8 50.6 32.7 34.7 43.2C18.8 53.7 -5.8 47.8 -21.7 35.1C-37.5 22.3 -44.5 2.8 -39.4 -17.8C-34.3 -38.5 -17.2 -60.2 2.3 -61C21.7 -61.7 43.5 -41.4 50.7 -17.8Z" stroke="#581c87" fill="none" stroke-width="20"></path></g><g transform="translate(46 66)"><path d="M42.8 -14.2C47.4 0.5 37.8 19.6 20.6 33.2C3.4 46.8 -21.2 55 -33.3 46.1C-45.4 37.3 -44.9 11.4 -37.3 -7.4C-29.6 -26.1 -14.8 -37.8 2.1 -38.5C19 -39.2 38.1 -28.9 42.8 -14.2Z" stroke="#581c87" fill="none" stroke-width="20"></path></g><g transform="translate(177 337)"><path d="M65 -15.4C74 6.5 63.9 40.3 42.2 55.4C20.5 70.5 -12.8 67 -31 51.6C-49.2 36.3 -52.3 9.1 -44.6 -11C-37 -31.1 -18.5 -44.1 4.8 -45.7C28 -47.2 56.1 -37.3 65 -15.4Z" stroke="#581c87" fill="none" stroke-width="20"></path></g><g transform="translate(545 663)"><path d="M43.2 -14.6C49.6 5.5 43.8 29 30.7 37.4C17.5 45.9 -3.2 39.3 -18.5 27.6C-33.9 16 -44 -0.8 -40 -17.6C-36 -34.4 -18 -51.3 0.2 -51.4C18.4 -51.4 36.9 -34.7 43.2 -14.6Z" stroke="#581c87" fill="none" stroke-width="20"></path></g><g transform="translate(281 22)"><path d="M41.4 -9C49.9 12.8 50.5 41.6 34.7 54.7C18.9 67.8 -13.4 65.3 -35 49.3C-56.7 33.3 -67.7 3.9 -60.1 -16.6C-52.5 -37.1 -26.3 -48.7 -4.9 -47.1C16.4 -45.5 32.9 -30.7 41.4 -9Z" stroke="#581c87" fill="none" stroke-width="20"></path></g><g transform="translate(634 385)"><path d="M58.5 -22C65.1 1.1 52.2 27.5 33.4 39.7C14.6 51.9 -10.1 49.9 -24.7 38.3C-39.4 26.6 -44 5.4 -38.2 -16.6C-32.4 -38.7 -16.2 -61.6 4.9 -63.2C26 -64.7 52 -45 58.5 -22Z" stroke="#581c87" fill="none" stroke-width="20"></path></g><g transform="translate(295 641)"><path d="M51.2 -15.5C59.1 7.7 53.2 36.4 38 46.1C22.7 55.7 -1.9 46.1 -23.2 30.9C-44.5 15.7 -62.4 -5.2 -58 -23.6C-53.5 -42.1 -26.8 -58.1 -2.6 -57.2C21.6 -56.4 43.3 -38.7 51.2 -15.5Z" stroke="#581c87" fill="none" stroke-width="20"></path></g><g transform="translate(867 137)"><path d="M44.9 -11.3C54.1 13.9 54.8 45.1 39 57.4C23.2 69.8 -9 63.2 -32 46C-55.1 28.8 -69.1 0.9 -62.2 -20.9C-55.3 -42.8 -27.7 -58.6 -4.9 -57C17.8 -55.4 35.6 -36.4 44.9 -11.3Z" stroke="#581c87" fill="none" stroke-width="20"></path></g><g transform="translate(886 454)"><path d="M36.7 -14.3C41.6 3.4 35.7 22.2 18.7 37.2C1.7 52.2 -26.3 63.5 -41.9 53.2C-57.5 43 -60.7 11.1 -51.7 -12.2C-42.6 -35.6 -21.3 -50.4 -2.7 -49.5C15.9 -48.6 31.7 -32 36.7 -14.3Z" stroke="#581c87" fill="none" stroke-width="20"></path></g><g transform="translate(19 577)"><path d="M56.8 -11.5C66.7 12 63.1 46.9 43.4 61.7C23.8 76.4 -11.9 71 -35.8 52.8C-59.6 34.7 -71.5 3.8 -63.6 -17C-55.6 -37.8 -27.8 -48.4 -2.2 -47.7C23.5 -47 46.9 -34.9 56.8 -11.5Z" stroke="#581c87" fill="none" stroke-width="20"></path></g><g transform="translate(350 880)"><path d="M57.3 -19.7C64.3 2.9 53.2 30.4 36.1 40.7C18.9 51.1 -4.2 44.3 -19.9 31.8C-35.7 19.3 -44.1 1.2 -39.5 -18.1C-35 -37.3 -17.5 -57.6 3.8 -58.8C25.2 -60.1 50.3 -42.3 57.3 -19.7Z" stroke="#581c87" fill="none" stroke-width="20"></path></g><g transform="translate(654 3)"><path d="M34 -14.8C38.5 2.7 32.7 19.8 18.9 31C5 42.3 -16.7 47.6 -34.7 37.1C-52.6 26.6 -66.7 0.2 -60.3 -20C-53.8 -40.2 -26.9 -54.2 -6.1 -52.2C14.8 -50.3 29.6 -32.3 34 -14.8Z" stroke="#581c87" fill="none" stroke-width="20"></path></g><g transform="translate(393 407)"><path d="M44.3 -13C50.1 3.6 42.6 25.9 24.7 40.4C6.8 54.9 -21.4 61.6 -39.2 49.7C-57 37.7 -64.4 7.2 -56.1 -12.7C-47.9 -32.6 -23.9 -41.9 -2.4 -41.2C19.2 -40.4 38.4 -29.6 44.3 -13Z" stroke="#581c87" fill="none" stroke-width="20"></path></g></g></svg>