<svg id="visual" viewBox="0 0 1200 400" width="1200" height="400" xmlns="http://www.w3.org/2000/svg" xmlns:xlink="http://www.w3.org/1999/xlink" version="1.1"><path d="M0 37L22.2 36.3C44.3 35.7 88.7 34.3 133.2 34.3C177.7 34.3 222.3 35.7 266.8 35.7C311.3 35.7 355.7 34.3 400 35C444.3 35.7 488.7 38.3 533.2 37C577.7 35.7 622.3 30.3 666.8 30.3C711.3 30.3 755.7 35.7 800 36.3C844.3 37 888.7 33 933.2 31.7C977.7 30.3 1022.3 31.7 1066.8 31C1111.3 30.3 1155.7 27.7 1177.8 26.3L1200 25L1200 0L1177.8 0C1155.7 0 1111.3 0 1066.8 0C1022.3 0 977.7 0 933.2 0C888.7 0 844.3 0 800 0C755.7 0 711.3 0 666.8 0C622.3 0 577.7 0 533.2 0C488.7 0 444.3 0 400 0C355.7 0 311.3 0 266.8 0C222.3 0 177.7 0 133.2 0C88.7 0 44.3 0 22.2 0L0 0Z" fill="#9158c1"></path><path d="M0 65L22.2 69C44.3 73 88.7 81 133.2 83C177.7 85 222.3 81 266.8 75.7C311.3 70.3 355.7 63.7 400 62.3C444.3 61 488.7 65 533.2 68.3C577.7 71.7 622.3 74.3 666.8 76.3C711.3 78.3 755.7 79.7 800 79.7C844.3 79.7 888.7 78.3 933.2 74.3C977.7 70.3 1022.3 63.7 1066.8 59C1111.3 54.3 1155.7 51.7 1177.8 50.3L1200 49L1200 23L1177.8 24.3C1155.7 25.7 1111.3 28.3 1066.8 29C1022.3 29.7 977.7 28.3 933.2 29.7C888.7 31 844.3 35 800 34.3C755.7 33.7 711.3 28.3 666.8 28.3C622.3 28.3 577.7 33.7 533.2 35C488.7 36.3 444.3 33.7 400 33C355.7 32.3 311.3 33.7 266.8 33.7C222.3 33.7 177.7 32.3 133.2 32.3C88.7 32.3 44.3 33.7 22.2 34.3L0 35Z" fill="#8547b9"></path><path d="M0 109L22.2 119.7C44.3 130.3 88.7 151.7 133.2 152.3C177.7 153 222.3 133 266.8 125.7C311.3 118.3 355.7 123.7 400 129.7C444.3 135.7 488.7 142.3 533.2 143.7C577.7 145 622.3 141 666.8 141.7C711.3 142.3 755.7 147.7 800 147C844.3 146.3 888.7 139.7 933.2 131.7C977.7 123.7 1022.3 114.3 1066.8 107C1111.3 99.7 1155.7 94.3 1177.8 91.7L1200 89L1200 47L1177.8 48.3C1155.7 49.7 1111.3 52.3 1066.8 57C1022.3 61.7 977.7 68.3 933.2 72.3C888.7 76.3 844.3 77.7 800 77.7C755.7 77.7 711.3 76.3 666.8 74.3C622.3 72.3 577.7 69.7 533.2 66.3C488.7 63 444.3 59 400 60.3C355.7 61.7 311.3 68.3 266.8 73.7C222.3 79 177.7 83 133.2 81C88.7 79 44.3 71 22.2 67L0 63Z" fill="#7835b0"></path><path d="M0 197L22.2 211C44.3 225 88.7 253 133.2 258.3C177.7 263.7 222.3 246.3 266.8 231C311.3 215.7 355.7 202.3 400 202.3C444.3 202.3 488.7 215.7 533.2 218.3C577.7 221 622.3 213 666.8 209.7C711.3 206.3 755.7 207.7 800 210.3C844.3 213 888.7 217 933.2 221.7C977.7 226.3 1022.3 231.7 1066.8 233.7C1111.3 235.7 1155.7 234.3 1177.8 233.7L1200 233L1200 87L1177.8 89.7C1155.7 92.3 1111.3 97.7 1066.8 105C1022.3 112.3 977.7 121.7 933.2 129.7C888.7 137.7 844.3 144.3 800 145C755.7 145.7 711.3 140.3 666.8 139.7C622.3 139 577.7 143 533.2 141.7C488.7 140.3 444.3 133.7 400 127.7C355.7 121.7 311.3 116.3 266.8 123.7C222.3 131 177.7 151 133.2 150.3C88.7 149.7 44.3 128.3 22.2 117.7L0 107Z" fill="#6b21a8"></path><path d="M0 313L22.2 319.7C44.3 326.3 88.7 339.7 133.2 343C177.7 346.3 222.3 339.7 266.8 336.3C311.3 333 355.7 333 400 333.7C444.3 334.3 488.7 335.7 533.2 335C577.7 334.3 622.3 331.7 666.8 331.7C711.3 331.7 755.7 334.3 800 332.3C844.3 330.3 888.7 323.7 933.2 319.7C977.7 315.7 1022.3 314.3 1066.8 315.7C1111.3 317 1155.7 321 1177.8 323L1200 325L1200 231L1177.8 231.7C1155.7 232.3 1111.3 233.7 1066.8 231.7C1022.3 229.7 977.7 224.3 933.2 219.7C888.7 215 844.3 211 800 208.3C755.7 205.7 711.3 204.3 666.8 207.7C622.3 211 577.7 219 533.2 216.3C488.7 213.7 444.3 200.3 400 200.3C355.7 200.3 311.3 213.7 266.8 229C222.3 244.3 177.7 261.7 133.2 256.3C88.7 251 44.3 223 22.2 209L0 195Z" fill="#611f99"></path><path d="M0 365L22.2 367.7C44.3 370.3 88.7 375.7 133.2 375C177.7 374.3 222.3 367.7 266.8 367C311.3 366.3 355.7 371.7 400 374.3C444.3 377 488.7 377 533.2 375.7C577.7 374.3 622.3 371.7 666.8 372.3C711.3 373 755.7 377 800 376.3C844.3 375.7 888.7 370.3 933.2 367.7C977.7 365 1022.3 365 1066.8 364.3C1111.3 363.7 1155.7 362.3 1177.8 361.7L1200 361L1200 323L1177.8 321C1155.7 319 1111.3 315 1066.8 313.7C1022.3 312.3 977.7 313.7 933.2 317.7C888.7 321.7 844.3 328.3 800 330.3C755.7 332.3 711.3 329.7 666.8 329.7C622.3 329.7 577.7 332.3 533.2 333C488.7 333.7 444.3 332.3 400 331.7C355.7 331 311.3 331 266.8 334.3C222.3 337.7 177.7 344.3 133.2 341C88.7 337.7 44.3 324.3 22.2 317.7L0 311Z" fill="#571c8a"></path><path d="M0 401L22.2 401C44.3 401 88.7 401 133.2 401C177.7 401 222.3 401 266.8 401C311.3 401 355.7 401 400 401C444.3 401 488.7 401 533.2 401C577.7 401 622.3 401 666.8 401C711.3 401 755.7 401 800 401C844.3 401 888.7 401 933.2 401C977.7 401 1022.3 401 1066.8 401C1111.3 401 1155.7 401 1177.8 401L1200 401L1200 359L1177.8 359.7C1155.7 360.3 1111.3 361.7 1066.8 362.3C1022.3 363 977.7 363 933.2 365.7C888.7 368.3 844.3 373.7 800 374.3C755.7 375 711.3 371 666.8 370.3C622.3 369.7 577.7 372.3 533.2 373.7C488.7 375 444.3 375 400 372.3C355.7 369.7 311.3 364.3 266.8 365C222.3 365.7 177.7 372.3 133.2 373C88.7 373.7 44.3 368.3 22.2 365.7L0 363Z" fill="#4e1a7b"></path></svg>